<svg xmlns="http://www.w3.org/2000/svg" viewBox="0 0 429.7 72.038"><path fill="#FFF" d="M106.81 16.682h-8.97l-16.51 15.57c-1.483 1.405-2.224 2.436-2.224 3.09 0 .728.767 1.785 2.3 3.165l17.075 15.87h8.86l-20.13-19.11 19.6-18.585M71.38 54.376h7.5V16.682h-7.5v37.694zM133.188 46.347c0 2.06-1.547 3.09-4.637 3.09h-9.498c-1.332 0-2.463-.27-3.392-.81-.93-.54-1.395-1.325-1.395-2.355v-2.79c0-2.362 1.57-3.543 4.712-3.543h12.664c1.032 0 1.547.314 1.547.94v5.467zm-4.11-20.392h-21.297v4.863h20.394c2.06 0 3.442.39 4.146 1.168.578.68.89 1.81.943 3.393H117.43c-3.04 0-5.433.615-7.18 1.847-1.746 1.23-2.62 2.99-2.62 5.276v5.013c0 2.212.98 3.933 2.94 5.165 1.81 1.13 4.223 1.696 7.238 1.696h12.665c2.89 0 5.17-.653 6.842-1.96 1.67-1.306 2.506-3.015 2.506-5.126V33.154c0-4.8-3.58-7.2-10.74-7.2M166.238 25.955h-11.685c-6.735 0-10.102 2.89-10.102 8.67V54.3h6.635V36.32c0-2.89 1.884-4.334 5.654-4.334h7.386c3.72 0 5.58 1.445 5.58 4.335V54.3h6.558V34.625c0-5.778-3.343-8.67-10.026-8.67M206.637 45.63c0 1.384-.338 2.3-1.017 2.754-.905.753-2.363 1.13-4.373 1.13h-8.028c-3.87 0-5.806-1.206-5.806-3.618V32.1c0-.804.54-1.207 1.62-1.207h12.213c3.593 0 5.39 1.32 5.39 3.958v10.78zm3.94-17.47c-1.798-1.37-4.24-2.054-7.332-2.054h-15.83V16.72h-6.635v29.93c0 2.688 1.042 4.648 3.13 5.88 2.084 1.23 4.62 1.846 7.612 1.846h11.648c6.734 0 10.1-2.526 10.1-7.577V33.57c0-2.237-.898-4.04-2.694-5.41M243.537 46.347c0 2.06-1.545 3.09-4.636 3.09h-9.498c-1.332 0-2.462-.27-3.392-.81-.93-.54-1.395-1.325-1.395-2.355v-2.79c0-2.362 1.57-3.543 4.712-3.543h12.665c1.03 0 1.545.314 1.545.94v5.467zm-4.108-20.392h-21.297v4.863h20.39c2.062 0 3.443.39 4.147 1.168.58.68.893 1.81.943 3.393h-15.83c-3.043 0-5.435.615-7.182 1.847-1.746 1.23-2.62 2.99-2.62 5.276v5.013c0 2.212.98 3.933 2.94 5.165 1.81 1.13 4.224 1.696 7.24 1.696h12.664c2.888 0 5.17-.653 6.84-1.96 1.672-1.306 2.507-3.015 2.507-5.126V33.154c0-4.8-3.58-7.2-10.74-7.2M276.587 25.955h-11.685c-6.735 0-10.102 2.89-10.102 8.67V54.3h6.634V36.32c0-2.89 1.885-4.334 5.655-4.334h7.386c3.72 0 5.58 1.445 5.58 4.335V54.3h6.558V34.625c0-5.778-3.343-8.67-10.027-8.67"/><path fill="#f8a10e" d="M296.1 18.49c-2.313 1.51-3.467 3.483-3.467 5.92v29.965h7.5V38.318h26.01V32.89h-26.01v-6.747c0-2.588 2.086-3.884 6.257-3.884h19.753v-5.503h-21.788c-3.644 0-6.395.58-8.255 1.733M331.975 54.376h6.634V16.682h-6.635v37.694zM369.587 46.046c0 1.18-.515 2.073-1.545 2.676-.778.528-1.91.792-3.392.792h-8.82c-1.534 0-2.715-.264-3.544-.792-1.08-.603-1.62-1.52-1.62-2.75V34.55c0-1.307.54-2.262 1.62-2.865.88-.578 2.224-.867 4.034-.867h7.878c1.733 0 3.016.29 3.845.867 1.03.603 1.545 1.558 1.545 2.865v11.496zm3.468-18.546c-1.483-.98-3.82-1.47-7.01-1.47h-11.498c-3.19 0-5.59.49-7.198 1.47-2.214 1.357-3.32 3.268-3.32 5.73v14.136c0 2.16.874 3.87 2.62 5.125 1.747 1.258 4.38 1.886 7.897 1.886h11.497c3.09 0 5.403-.49 6.936-1.47 2.16-1.282 3.24-3.128 3.24-5.54V33.23c0-2.538-1.054-4.45-3.165-5.73M422.875 25.58l-7.426 22.615-6.107-19.15c-.754-2.46-2.35-3.693-4.787-3.693-2.412 0-4.01 1.233-4.787 3.694l-6.15 19.15-7.426-22.617h-6.484l8.18 25.33c.88 2.662 2.676 3.995 5.39 3.995 2.84 0 4.65-1.257 5.43-3.77l5.69-18.544 5.956 18.546c.83 2.512 2.575 3.77 5.24 3.77 2.788 0 4.623-1.334 5.502-3.997l8.255-25.33h-6.483"/><path fill="#FFF" d="M6.296 37.596c0-8.8 4.898-16.698 12.78-20.617 2.002-.992 3.762-1.495 5.233-1.495.19 0 .355.024.526.04 2.327.306 4.468 2.506 4.468 2.506s1.852-2.17 4.365-2.5c.2-.02.4-.045.63-.045 1.47 0 3.23.503 5.226 1.49.363.182.71.377 1.06.575l6.666-1.272c-1.696-1.428-3.552-2.67-5.555-3.667-2.422-1.198-4.458-1.757-6.163-1.935l-.03.007c-1.17-.043-1.98.38-2.652.962 2.356-3.608 6.15-8.17 12.302-11.088C36.84 2.382 32.714 5.77 29.09 9.874c-4.483-4.336-9.14-3.47-9.14-3.47 3.093.94 4.827 3.143 5.413 5.174-.74-.527-1.598-.903-2.614-.864l-.004.003h-.007c-1.635.212-3.562.77-5.83 1.895C7.73 17.174 1.42 26.648 1.42 37.597c0 3.48.645 6.81 1.81 9.887l3.652-4.74c-.38-1.656-.586-3.377-.586-5.147M52.26 39.04c-.746 12.016-10.755 21.565-22.956 21.565-.484 0-.962-.02-1.438-.05l-3.668 3.74-.287.658c1.745.344 3.547.528 5.393.528 15.4 0 27.884-12.482 27.884-27.883 0-2.744-.398-5.396-1.136-7.9l-3.79 9.343"/><path fill="#fbc707" d="M4.746 50.744l12.608 21.293 3.62-8.325-6.697-25.34-9.53 12.372"/><path fill="#f8a10e" d="M31.832 24.256L19.075 32.28l3.89 28.717 8.484-8.655.383-28.086"/><path fill="#f36717" d="M34.45 50.844l10.875-3.19L57.534 17.56l-19.91 3.8-3.174 29.484"/></svg>